<svg xmlns="http://www.w3.org/2000/svg" viewBox="0 0 300 280" fill="none">
  <!-- Background leaf/plant shape -->
  <path d="M120 260 Q100 200 130 160 Q140 140 135 120 Q130 100 140 80" stroke="#e0e0e0" stroke-width="2" fill="none"/>
  <path d="M135 120 Q160 130 150 160 Q145 175 155 185 Q165 195 150 220" fill="#f0f0f0" opacity="0.6"/>
  <path d="M140 80 Q120 100 125 120 Q128 135 115 150 Q100 170 110 200" fill="#e8e8e8" opacity="0.5"/>

  <!-- Orange circle behind shield -->
  <circle cx="145" cy="80" r="50" stroke="#F5853F" stroke-width="2" fill="none" opacity="0.3"/>
  <circle cx="145" cy="80" r="48" fill="#FFF5EE" opacity="0.3"/>

  <!-- Shield icon -->
  <path d="M135 60 L145 55 L155 60 L155 78 Q155 88 145 93 Q135 88 135 78 Z" fill="#F5853F" opacity="0.9"/>
  <polyline points="140,76 144,80 152,68" stroke="white" stroke-width="2.5" fill="none" stroke-linecap="round" stroke-linejoin="round"/>

  <!-- Woman figure -->
  <!-- Head -->
  <circle cx="190" cy="95" r="16" fill="#F5C5A3"/>
  <!-- Hair -->
  <path d="M174 90 Q174 72 190 72 Q206 72 206 90 Q206 82 198 80 Q190 78 182 82 Q176 86 174 90Z" fill="#2D2D2D"/>
  <path d="M174 90 Q172 95 174 100" stroke="#2D2D2D" stroke-width="3" fill="none" stroke-linecap="round"/>

  <!-- Neck -->
  <rect x="186" y="110" width="8" height="8" fill="#F5C5A3" rx="2"/>

  <!-- Body / White top -->
  <path d="M172 118 Q180 115 190 115 Q200 115 208 118 L212 155 L168 155 Z" fill="white" stroke="#e0e0e0" stroke-width="0.5"/>

  <!-- Left arm reaching toward shield -->
  <path d="M172 120 Q160 115 155 95" stroke="#F5C5A3" stroke-width="6" fill="none" stroke-linecap="round"/>
  <!-- Right arm down -->
  <path d="M208 120 Q215 140 212 160" stroke="#F5C5A3" stroke-width="6" fill="none" stroke-linecap="round"/>

  <!-- Pants/legs -->
  <path d="M175 155 L172 220 L180 220 L185 170 L195 170 L200 220 L208 220 L205 155 Z" fill="#2D2D2D"/>

  <!-- Shoes -->
  <path d="M170 218 L180 218 L182 222 L168 222 Z" fill="#2D2D2D" rx="2"/>
  <path d="M198 218 L208 218 L210 222 L196 222 Z" fill="#2D2D2D" rx="2"/>

  <!-- Small decorative dots -->
  <circle cx="100" cy="240" r="3" fill="#F5853F" opacity="0.2"/>
  <circle cx="230" cy="200" r="2" fill="#F5853F" opacity="0.15"/>
  <circle cx="80" cy="180" r="2.5" fill="#F5853F" opacity="0.1"/>
</svg>
