<svg width="50" height="50" viewBox="0 0 50 50" fill="none" xmlns="http://www.w3.org/2000/svg">
<path d="M6.25 6.25H10.4167L11.25 10.4167M14.5833 27.0833H35.4167L43.75 10.4167H11.25M14.5833 27.0833L11.25 10.4167M14.5833 27.0833L9.80625 31.8604C8.49375 33.1729 9.42292 35.4167 11.2792 35.4167H35.4167M35.4167 35.4167C34.3116 35.4167 33.2518 35.8557 32.4704 36.6371C31.689 37.4185 31.25 38.4783 31.25 39.5833C31.25 40.6884 31.689 41.7482 32.4704 42.5296C33.2518 43.311 34.3116 43.75 35.4167 43.75C36.5217 43.75 37.5815 43.311 38.3629 42.5296C39.1443 41.7482 39.5833 40.6884 39.5833 39.5833C39.5833 38.4783 39.1443 37.4185 38.3629 36.6371C37.5815 35.8557 36.5217 35.4167 35.4167 35.4167ZM18.75 39.5833C18.75 40.6884 18.311 41.7482 17.5296 42.5296C16.7482 43.311 15.6884 43.75 14.5833 43.75C13.4783 43.75 12.4185 43.311 11.6371 42.5296C10.8557 41.7482 10.4167 40.6884 10.4167 39.5833C10.4167 38.4783 10.8557 37.4185 11.6371 36.6371C12.4185 35.8557 13.4783 35.4167 14.5833 35.4167C15.6884 35.4167 16.7482 35.8557 17.5296 36.6371C18.311 37.4185 18.75 38.4783 18.75 39.5833V39.5833Z" stroke="white" stroke-width="2.5" stroke-linecap="round" stroke-linejoin="round"/>
</svg>
